<?xml version="1.0" standalone="no"?>
<!DOCTYPE svg PUBLIC "-//W3C//DTD SVG 20010904//EN"
 "http://www.w3.org/TR/2001/REC-SVG-20010904/DTD/svg10.dtd">
<svg version="1.0" xmlns="http://www.w3.org/2000/svg"
 width="700.000000pt" height="700.000000pt" viewBox="0 0 700.000000 700.000000"
 preserveAspectRatio="xMidYMid meet">
<metadata>
Created by potrace 1.14, written by Peter Selinger 2001-2017
</metadata>
<g transform="translate(0.000000,700.000000) scale(0.100000,-0.100000)"
fill="#000000" stroke="none">
<path d="M3330 6480 c-353 -49 -651 -208 -885 -470 -168 -189 -288 -446 -330
-705 -12 -71 -15 -202 -15 -612 l0 -523 -267 -2 -268 -3 0 -1260 c0 -1186 1
-1265 18 -1338 78 -331 324 -577 652 -653 76 -18 147 -19 1270 -19 965 0 1201
3 1250 14 362 81 634 381 675 744 7 61 10 504 8 1302 l-3 1210 -267 3 -268 2
0 523 c0 563 -4 613 -55 792 -32 110 -115 287 -183 386 -206 304 -518 513
-880 589 -111 24 -350 34 -452 20z m355 -597 c268 -59 505 -273 589 -533 43
-131 46 -171 46 -687 l0 -493 -820 0 -821 0 3 528 c4 570 3 557 62 704 89 221
296 404 532 473 127 37 266 40 409 8z m-33 -2493 c209 -64 357 -268 358 -490
0 -153 -90 -324 -216 -411 l-44 -30 -2 -417 -3 -417 -245 0 -245 0 -3 417 -2
417 -44 30 c-61 42 -126 118 -159 184 -74 152 -76 301 -3 452 59 124 164 217
294 262 89 30 222 32 314 3z"/>
</g>
</svg>
